<?xml version="1.0" standalone="no"?>
<!DOCTYPE svg PUBLIC "-//W3C//DTD SVG 20010904//EN"
 "http://www.w3.org/TR/2001/REC-SVG-20010904/DTD/svg10.dtd">
<svg version="1.0" xmlns="http://www.w3.org/2000/svg"
 width="700.000000pt" height="700.000000pt" viewBox="0 0 700.000000 700.000000"
 preserveAspectRatio="xMidYMid meet">
<metadata>
Created by potrace 1.11, written by Peter Selinger 2001-2013
</metadata>
<g transform="translate(0.000000,700.000000) scale(0.100000,-0.100000)"
fill="#000000" stroke="none">
<path d="M1270 3580 l0 -1750 235 0 235 0 2 833 3 832 857 3 858 2 2 -832 3
-833 238 -3 237 -2 0 1750 0 1750 -240 0 -240 0 0 -715 0 -715 -860 0 -860 0
0 715 0 715 -235 0 -235 0 0 -1750z"/>
<path d="M5954 4506 c-284 -46 -486 -172 -636 -395 l-38 -56 0 203 0 202 -215
0 -215 0 0 -1315 0 -1315 215 0 215 0 0 756 c0 834 3 884 61 1059 43 130 91
209 178 295 117 117 230 168 418 190 141 17 293 -6 426 -64 16 -8 17 6 17 212
l0 220 -32 6 c-75 14 -315 15 -394 2z"/>
</g>
</svg>
