<?xml version="1.0" encoding="UTF-8"?>
<!DOCTYPE svg PUBLIC "-//W3C//DTD SVG 1.1//EN" "http://www.w3.org/Graphics/SVG/1.1/DTD/svg11.dtd">
<svg version="1.1" xmlns="http://www.w3.org/2000/svg" xmlns:xlink="http://www.w3.org/1999/xlink" x="0" y="0" width="64.549" height="75.598" viewBox="0, 0, 64.549, 75.598">
  <g id="Layer_1" transform="translate(-414.047, -215.844)">
    <path d="M471.346,280.668 C471.174,281.484 470.588,283.383 468.885,283.383 L423.757,283.383 C422.472,283.383 421.647,282.479 421.31,280.722 L416.833,254.438 C416.888,253.147 417.955,252.115 419.259,252.115 L473.382,252.115 C474.687,252.115 475.755,253.147 475.81,254.438 z M469.665,287.513 C469.665,288.144 469.153,288.657 468.521,288.657 L424.121,288.657 C423.492,288.657 422.98,288.144 422.98,287.513 L422.98,286.098 C423.234,286.135 423.489,286.167 423.757,286.167 L468.885,286.167 C469.154,286.167 469.411,286.135 469.665,286.094 z M473.382,249.331 L419.259,249.331 C416.385,249.331 414.047,251.669 414.047,254.542 C414.047,254.621 414.054,254.699 414.067,254.776 L418.571,281.217 C418.844,282.646 419.413,283.793 420.196,284.631 L420.196,287.513 C420.196,289.679 421.957,291.441 424.121,291.441 L468.521,291.441 C470.687,291.441 472.45,289.679 472.45,287.513 L472.45,284.55 C473.213,283.709 473.787,282.58 474.079,281.189 L478.576,254.776 C478.589,254.699 478.596,254.621 478.596,254.542 C478.596,251.669 476.257,249.331 473.382,249.331" fill="#434342"/>
    <path d="M433.045,242.3 L432.064,245.571 C431.843,246.307 432.261,247.083 432.997,247.304 C433.131,247.344 433.266,247.363 433.398,247.363 C433.997,247.363 434.549,246.974 434.731,246.371 L435.712,243.101 C435.933,242.364 435.515,241.589 434.779,241.367 C434.041,241.152 433.267,241.565 433.045,242.3" fill="#434342"/>
    <path d="M457.863,241.367 C457.127,241.589 456.709,242.364 456.93,243.101 L457.912,246.371 C458.092,246.974 458.645,247.364 459.244,247.364 C459.377,247.364 459.511,247.344 459.645,247.304 C460.382,247.083 460.8,246.307 460.578,245.571 L459.597,242.3 C459.376,241.565 458.604,241.152 457.863,241.367" fill="#434342"/>
    <path d="M446.324,218.628 C451.228,218.628 455.219,222.621 455.219,227.528 C455.219,232.434 451.228,236.424 446.324,236.424 C441.416,236.424 437.424,232.434 437.424,227.528 C437.424,222.621 441.416,218.628 446.324,218.628 M423.612,247.429 C423.771,247.488 423.933,247.516 424.095,247.516 C424.66,247.516 425.192,247.168 425.4,246.606 L428.023,239.493 C428.931,236.945 429.906,235.213 431.573,235.051 L437.399,235.051 C439.545,237.589 442.747,239.208 446.324,239.208 C449.898,239.208 453.099,237.588 455.244,235.05 L460.939,235.045 C462.778,235.217 463.633,237.017 464.627,239.506 L467.242,246.605 C467.449,247.168 467.982,247.516 468.548,247.516 C468.708,247.516 468.871,247.488 469.029,247.43 C469.75,247.164 470.12,246.363 469.854,245.642 L467.225,238.509 C466.234,236.024 464.875,232.618 461.069,232.267 L456.989,232.267 C457.636,230.816 458.003,229.216 458.003,227.528 C458.003,221.086 452.763,215.844 446.324,215.844 C439.881,215.844 434.639,221.086 434.639,227.528 C434.639,229.217 435.007,230.819 435.655,232.269 L431.443,232.273 C427.512,232.642 426.086,236.638 425.407,238.544 L422.789,245.642 C422.522,246.363 422.891,247.163 423.612,247.429" fill="#434342"/>
    <path d="M447.607,276.221 C446.837,276.221 446.214,276.845 446.214,277.613 L446.214,278.399 C446.214,279.167 446.837,279.791 447.607,279.791 C448.376,279.791 448.999,279.167 448.999,278.399 L448.999,277.613 C448.999,276.845 448.376,276.221 447.607,276.221" fill="#434342"/>
    <path d="M446.351,255.709 C444.033,255.709 442.122,256.361 440.675,257.645 C439.218,258.929 438.335,260.761 438.048,263.092 C437.955,263.856 438.497,264.55 439.26,264.644 C440.022,264.733 440.718,264.196 440.812,263.433 C441.015,261.775 441.573,260.565 442.52,259.731 C443.458,258.898 444.711,258.493 446.351,258.493 C448.096,258.493 449.423,258.931 450.41,259.833 C451.359,260.701 451.821,261.714 451.821,262.928 C451.821,263.627 451.664,264.249 451.339,264.831 C451.092,265.275 450.499,266.069 449.07,267.335 C448.091,268.203 447.511,268.79 447.195,269.23 C446.83,269.73 446.559,270.301 446.394,270.92 C446.231,271.509 446.146,272.341 446.125,273.54 C446.113,274.308 446.726,274.942 447.495,274.955 L447.518,274.955 C448.276,274.955 448.897,274.347 448.91,273.586 C448.93,272.365 449.023,271.855 449.08,271.651 C449.159,271.355 449.281,271.094 449.45,270.864 C449.556,270.715 449.888,270.329 450.915,269.418 C452.32,268.176 453.254,267.117 453.772,266.184 C454.325,265.195 454.605,264.099 454.605,262.928 C454.605,260.916 453.825,259.183 452.288,257.778 C450.787,256.405 448.789,255.709 446.351,255.709" fill="#434342"/>
  </g>
</svg>
