<?xml version="1.0" encoding="UTF-8"?>
<!DOCTYPE svg PUBLIC "-//W3C//DTD SVG 1.1//EN" "http://www.w3.org/Graphics/SVG/1.1/DTD/svg11.dtd">
<svg version="1.1" xmlns="http://www.w3.org/2000/svg" xmlns:xlink="http://www.w3.org/1999/xlink" x="0" y="0" width="100" height="115.02" viewBox="0, 0, 100, 115.02">
  <defs>
    <linearGradient id="Gradient_1" gradientUnits="userSpaceOnUse" x1="0.009" y1="0" x2="0.751" y2="0.645" gradientTransform="matrix(62.859, 0, 0, 63.47, 5.591, 6.397)">
      <stop offset="0" stop-color="#5A9FD4"/>
      <stop offset="1" stop-color="#306998"/>
    </linearGradient>
    <linearGradient id="Gradient_2" gradientUnits="userSpaceOnUse" x1="0.509" y1="0.823" x2="0.246" y2="0.447" gradientTransform="matrix(62.987, 0, 0, 63.957, 27.513, 28.286)">
      <stop offset="0" stop-color="#FFD43B"/>
      <stop offset="1" stop-color="#FFE873"/>
    </linearGradient>
    <radialGradient id="Gradient_3" gradientUnits="userSpaceOnUse" cx="0.5" cy="0.511" r="29.037" gradientTransform="matrix(0, -10.644, 54.89, 0, 20.781, 98.617)">
      <stop offset="0" stop-color="#B8B8B8" stop-opacity="0.498"/>
      <stop offset="1" stop-color="#7F7F7F" stop-opacity="0"/>
    </radialGradient>
    <clipPath id="Clip_1">
      <path d="M0.58,0 L389.42,0 L389.42,115.02 L0.58,115.02 z"/>
    </clipPath>
  </defs>
  <g id="Layer_1">
    <g clip-path="url(#Clip_1)">
      <path d="M48.12,6.398 C44.619,6.414 41.275,6.713 38.334,7.233 C29.667,8.764 28.093,11.969 28.093,17.879 L28.093,25.685 L48.574,25.685 L48.574,28.286 L28.093,28.286 L20.407,28.286 C14.455,28.286 9.243,31.864 7.613,38.67 C5.733,46.471 5.649,51.339 7.613,59.484 C9.069,65.547 12.546,69.867 18.498,69.867 L25.539,69.867 L25.539,60.51 C25.539,53.751 31.388,47.788 38.334,47.788 L58.79,47.788 C64.484,47.788 69.03,43.099 69.03,37.381 L69.03,17.879 C69.03,12.329 64.348,8.16 58.79,7.233 C55.272,6.648 51.621,6.381 48.12,6.398 z M37.045,12.676 C39.16,12.676 40.888,14.431 40.888,16.59 C40.888,18.741 39.16,20.481 37.045,20.481 C34.921,20.481 33.202,18.741 33.202,16.59 C33.202,14.431 34.921,12.676 37.045,12.676 z" fill="url(#Gradient_1)"/>
      <path d="M71.584,28.286 L71.584,37.381 C71.584,44.431 65.606,50.366 58.79,50.366 L38.334,50.366 C32.73,50.366 28.093,55.162 28.093,60.773 L28.093,80.275 C28.093,85.825 32.92,89.09 38.334,90.682 C44.816,92.588 51.033,92.933 58.79,90.682 C63.946,89.189 69.03,86.185 69.03,80.275 L69.03,72.469 L48.574,72.469 L48.574,69.867 L69.03,69.867 L79.27,69.867 C85.222,69.867 87.44,65.716 89.51,59.484 C91.648,53.069 91.558,46.899 89.51,38.67 C88.039,32.744 85.23,28.286 79.27,28.286 L71.584,28.286 z M60.079,77.673 C62.202,77.673 63.922,79.412 63.922,81.564 C63.922,83.722 62.202,85.478 60.079,85.478 C57.963,85.478 56.236,83.722 56.236,81.564 C56.236,79.412 57.963,77.673 60.079,77.673 z" fill="url(#Gradient_2)"/>
      <g opacity="0.444">
        <path d="M76.251,103.939 C76.251,106.878 63.964,109.261 48.806,109.261 C33.648,109.261 21.361,106.878 21.361,103.939 C21.361,101 33.648,98.617 48.806,98.617 C63.964,98.617 76.251,101 76.251,103.939 z" fill="url(#Gradient_3)"/>
      </g>
    </g>
  </g>
</svg>
