<?xml version="1.0" encoding="UTF-8"?>
<!DOCTYPE svg PUBLIC "-//W3C//DTD SVG 1.1//EN" "http://www.w3.org/Graphics/SVG/1.1/DTD/svg11.dtd">
<svg version="1.1" xmlns="http://www.w3.org/2000/svg" xmlns:xlink="http://www.w3.org/1999/xlink" x="0" y="0" width="72.766" height="79.087" viewBox="0, 0, 72.766, 79.087">
  <g id="Layer_1" transform="translate(-177.062, -212.602)">
    <path d="M244.545,248.924 C244.145,253.559 243.162,258.12 241.915,261.125 C240.885,263.608 239.606,265.725 238.244,267.62 L208.712,269.967 L207.021,257.086 L220.173,251.302 C220.42,251.819 220.895,252.218 221.498,252.342 C221.761,252.396 222.023,252.391 222.27,252.339 C222.983,252.187 223.573,251.63 223.729,250.87 L224.542,246.91 C224.748,245.904 225.339,245.048 226.206,244.499 C227.074,243.95 228.1,243.782 229.097,244.026 C230.778,244.437 231.952,245.932 231.952,247.662 L231.952,251.372 C231.952,254.352 230.158,256.978 227.382,258.063 C226.561,258.383 225.616,258.079 225.136,257.34 C224.698,256.664 223.901,256.363 223.158,256.521 C222.938,256.567 222.723,256.652 222.523,256.782 C221.647,257.35 221.397,258.52 221.965,259.396 C223.028,261.035 224.845,261.967 226.717,261.967 C227.401,261.967 228.093,261.843 228.757,261.583 C230.821,260.777 232.572,259.384 233.821,257.555 C235.071,255.725 235.731,253.587 235.731,251.372 L235.731,247.662 C235.731,246.625 235.52,245.631 235.136,244.723 L244.534,240.59 C244.803,243.007 244.811,245.845 244.545,248.924 M194.127,277.845 C188.801,276.496 184.494,272.832 182.31,267.792 C180.125,262.752 180.395,257.103 183.051,252.295 L185.065,248.648 L203.224,257.196 L205.092,271.429 L198.862,279.045 z M192.463,237.026 C192.215,236.116 191.907,234.985 192.003,234.465 C192.919,229.477 195.894,224.883 200.379,221.528 C204.816,218.209 210.297,216.382 215.816,216.382 C222.077,216.382 228.022,218.28 233.006,221.872 C237.986,225.461 241.677,230.501 243.68,236.445 C243.717,236.557 243.754,236.672 243.79,236.788 L232.734,241.65 C231.938,241.051 231.013,240.603 229.995,240.354 C227.991,239.864 225.928,240.202 224.185,241.306 C222.442,242.409 221.253,244.13 220.839,246.15 L220.674,246.953 L204.989,253.85 L190.137,246.859 C192.562,242.939 192.794,242.142 192.902,241.77 C193.343,240.25 192.896,238.611 192.463,237.026 M248.133,239.007 L248.699,238.758 C249.654,238.339 250.088,237.223 249.668,236.268 C249.261,235.343 248.204,234.909 247.27,235.263 C247.267,235.255 247.264,235.247 247.262,235.239 C245.005,228.541 240.839,222.859 235.216,218.806 C229.584,214.747 222.876,212.602 215.816,212.602 C209.487,212.602 203.201,214.697 198.115,218.501 C192.865,222.428 189.374,227.855 188.285,233.781 C188.033,235.149 188.432,236.609 188.817,238.021 C189.07,238.948 189.417,240.218 189.274,240.711 C189.103,241.252 188.083,243.004 186.692,245.237 L185.071,244.474 C184.17,244.05 183.094,244.398 182.612,245.27 L179.742,250.467 C176.516,256.309 176.187,263.172 178.841,269.295 C181.496,275.418 186.729,279.87 193.198,281.509 L199.099,283.004 C199.253,283.043 199.409,283.062 199.564,283.062 C200.122,283.062 200.662,282.814 201.026,282.369 L202.659,280.373 L203.688,280.736 C204.882,281.156 205.685,282.29 205.685,283.557 L205.685,289.799 C205.685,290.843 206.531,291.689 207.575,291.689 C208.619,291.689 209.465,290.843 209.465,289.799 L209.465,283.557 C209.465,280.781 207.762,278.288 205.2,277.267 L208.025,273.814 L235.059,271.665 C232.834,274.601 231.616,278.196 231.616,281.881 L231.616,289.799 C231.616,290.843 232.462,291.689 233.506,291.689 C234.55,291.689 235.396,290.843 235.396,289.799 L235.396,281.881 C235.396,278.804 236.491,275.805 238.479,273.437 C239.067,272.735 239.661,272.01 240.248,271.253 L243.181,271.019 C244.222,270.937 244.998,270.026 244.916,268.986 C244.837,267.994 244.006,267.245 243.028,267.247 C243.89,265.828 244.696,264.284 245.406,262.574 C246.793,259.23 247.879,254.249 248.311,249.249 C248.638,245.455 248.572,241.946 248.133,239.007" fill="#434342"/>
    <path d="M197.541,246.655 C198.99,246.655 200.168,245.477 200.168,244.028 C200.168,242.579 198.99,241.401 197.541,241.401 C196.092,241.401 194.914,242.579 194.914,244.028 C194.914,245.477 196.092,246.655 197.541,246.655" fill="#434342"/>
  </g>
</svg>
