<?xml version="1.0" encoding="UTF-8"?>
<!DOCTYPE svg PUBLIC "-//W3C//DTD SVG 1.1//EN" "http://www.w3.org/Graphics/SVG/1.1/DTD/svg11.dtd">
<svg version="1.1" xmlns="http://www.w3.org/2000/svg" xmlns:xlink="http://www.w3.org/1999/xlink" x="0" y="0" width="80.026" height="76.692" viewBox="0, 0, 80.026, 76.692">
  <g id="Layer_1" transform="translate(-49.415, -213.125)">
    <path d="M82.76,239.801 L76.174,239.801 C80.834,234.314 87.39,230.783 94.614,229.984 L96.097,229.819 L96.097,224.796 L92.763,224.796 L92.763,226.869 C84.38,228.198 76.936,232.854 71.984,239.801 L57.752,239.801 L57.752,243.135 L82.76,243.135 z" fill="#434342"/>
    <path d="M77.758,253.138 L69.868,253.138 C70.235,251.073 70.827,249.055 71.646,247.118 L68.575,245.819 C67.582,248.167 66.898,250.624 66.499,253.138 L49.415,253.138 L49.415,256.472 L77.758,256.472 z" fill="#434342"/>
    <path d="M79.425,266.476 L70.686,266.476 C70.011,264.286 69.59,262.02 69.464,259.717 L66.136,259.899 C66.258,262.13 66.613,264.333 67.196,266.476 L54.417,266.476 L54.417,269.81 L79.425,269.81 z" fill="#434342"/>
    <path d="M96.097,219.794 L91.096,219.794 L91.096,216.46 L104.433,216.46 L104.433,219.794 L99.431,219.794 L99.431,223.128 L107.767,223.128 L107.767,213.125 L87.761,213.125 L87.761,223.128 L96.097,223.128 z" fill="#434342"/>
    <path d="M120.498,236.096 L123.605,232.989 L124.928,234.311 L127.285,231.953 L122.284,226.951 L119.926,229.309 L121.248,230.631 L118.064,233.815 C113.799,230.255 108.568,227.785 102.766,226.867 L102.766,224.796 L99.431,224.796 L99.431,229.819 L100.915,229.983 C115.276,231.572 126.106,243.677 126.106,258.14 C126.106,273.768 113.393,286.482 97.764,286.482 L71.089,286.482 L71.089,289.817 L97.764,289.817 C115.23,289.817 129.441,275.606 129.441,258.14 C129.441,249.604 126.048,241.82 120.498,236.096" fill="#434342"/>
    <path d="M78.409,283.216 L80.448,280.579 C77.502,278.302 75.068,275.519 73.211,272.305 L70.322,273.974 C72.4,277.565 75.119,280.674 78.409,283.216" fill="#434342"/>
    <path d="M97.765,261.474 C95.927,261.474 94.431,259.978 94.431,258.14 C94.431,256.301 95.927,254.805 97.765,254.805 C99.603,254.805 101.099,256.301 101.099,258.14 C101.099,259.978 99.603,261.474 97.765,261.474 M101.131,252.415 C100.14,251.83 98.998,251.471 97.765,251.471 C94.087,251.471 91.096,254.462 91.096,258.14 C91.096,261.817 94.087,264.808 97.765,264.808 C101.443,264.808 104.434,261.817 104.434,258.14 C104.434,256.907 104.075,255.765 103.489,254.773 L115.616,242.646 L113.258,240.288 z" fill="#434342"/>
    <path d="M97.765,279.813 L91.096,279.813 L91.096,283.147 L97.765,283.147 C111.555,283.147 122.773,271.929 122.773,258.14 C122.773,253.742 121.615,249.417 119.426,245.633 L116.54,247.304 C118.435,250.581 119.438,254.328 119.438,258.14 C119.438,270.091 109.715,279.813 97.765,279.813" fill="#434342"/>
  </g>
</svg>
