<?xml version="1.0" encoding="UTF-8"?>
<!DOCTYPE svg PUBLIC "-//W3C//DTD SVG 1.1//EN" "http://www.w3.org/Graphics/SVG/1.1/DTD/svg11.dtd">
<svg version="1.1" xmlns="http://www.w3.org/2000/svg" xmlns:xlink="http://www.w3.org/1999/xlink" x="0" y="0" width="73.257" height="75.017" viewBox="0, 0, 73.257, 75.017">
  <g id="Layer_1" transform="translate(-286.981, -216.239)">
    <path d="M354.57,259.915 L350.471,262.156 C350.234,262.287 350.037,262.483 349.907,262.721 L347.666,266.819 L345.424,262.721 C345.294,262.483 345.098,262.287 344.86,262.156 L340.761,259.915 L344.86,257.674 C345.098,257.544 345.294,257.348 345.424,257.11 L347.666,253.011 L349.907,257.11 C350.037,257.348 350.234,257.544 350.471,257.674 z M352.199,255.382 L348.912,249.369 C348.414,248.459 346.918,248.459 346.42,249.369 L343.132,255.382 L337.12,258.669 C336.665,258.918 336.382,259.396 336.382,259.915 C336.382,260.435 336.665,260.913 337.12,261.161 L343.132,264.449 L346.42,270.461 C346.669,270.916 347.146,271.2 347.666,271.2 C348.185,271.2 348.663,270.916 348.912,270.461 L352.199,264.449 L356.563,262.062 C355.139,268.373 351.954,274.023 347.54,278.456 L327.404,258.32 L337.341,248.109 C338.134,247.293 338.564,246.218 338.548,245.079 C338.531,243.941 338.073,242.878 337.258,242.084 L336.113,240.971 C334.481,239.382 331.676,239.422 330.09,241.053 L320.249,251.165 L299.78,230.697 C305.023,225.476 311.968,221.969 319.697,221.072 L318.68,222.934 L312.667,226.221 C312.213,226.47 311.929,226.948 311.929,227.467 C311.929,227.986 312.213,228.464 312.667,228.713 L318.68,232 L321.967,238.013 C322.216,238.468 322.694,238.751 323.213,238.751 C323.733,238.751 324.21,238.468 324.459,238.013 L327.747,232 L333.759,228.713 C334.214,228.464 334.498,227.986 334.498,227.467 C334.498,226.948 334.214,226.47 333.759,226.221 L327.747,222.934 L326.681,220.984 C333.671,221.618 340.054,224.383 345.168,228.632 L344.377,230.078 L340.095,232.419 C339.64,232.668 339.357,233.146 339.357,233.665 C339.357,234.185 339.64,234.663 340.095,234.912 L344.377,237.253 L346.718,241.535 C346.967,241.99 347.445,242.273 347.965,242.273 C348.484,242.273 348.962,241.99 349.211,241.535 L351.552,237.253 L352.317,236.835 C355.533,242.006 357.398,248.102 357.398,254.627 C357.398,255.808 357.336,256.975 357.217,258.125 z M323.61,288.415 C316.365,288.415 309.653,286.116 304.145,282.22 L325.423,260.355 L345.447,280.38 C339.553,285.386 331.93,288.415 323.61,288.415 M325.287,250.06 L332.125,243.033 C332.395,242.756 332.757,242.603 333.143,242.603 C333.514,242.603 333.866,242.746 334.133,243.006 L335.278,244.12 C335.549,244.385 335.703,244.74 335.707,245.119 C335.713,245.498 335.57,245.856 335.305,246.128 L328.468,253.155 z M301.881,280.475 L300.045,282.362 C299.993,282.415 299.923,282.44 299.864,282.483 C299.322,282.88 298.528,282.867 298.036,282.39 L296.89,281.275 C296.619,281.011 296.467,280.657 296.461,280.277 C296.458,279.983 296.567,279.714 296.729,279.475 C296.776,279.406 296.805,279.328 296.864,279.267 L298.676,277.405 L320.276,255.209 L322.257,253.173 L323.306,252.095 L326.487,255.19 L325.395,256.311 L323.415,258.347 z M289.821,254.627 C289.821,246.306 292.85,238.684 297.857,232.789 L318.268,253.201 L296.845,275.215 C292.446,269.51 289.821,262.371 289.821,254.627 M320.972,224.662 L323.055,220.852 L323.213,220.563 L323.367,220.845 L325.454,224.662 C325.585,224.899 325.781,225.096 326.019,225.226 L330.117,227.467 L326.019,229.708 C325.781,229.838 325.585,230.035 325.454,230.272 L323.213,234.371 L320.972,230.272 C320.841,230.035 320.646,229.838 320.408,229.708 L316.309,227.467 L320.408,225.226 C320.646,225.096 320.841,224.899 320.972,224.662 M346.669,231.806 L347.331,230.595 L347.965,229.437 L349.26,231.806 C349.39,232.043 349.587,232.24 349.824,232.37 L352.193,233.665 L350.713,234.475 L349.824,234.96 C349.587,235.091 349.39,235.287 349.26,235.525 L347.965,237.894 L346.669,235.525 C346.539,235.287 346.343,235.091 346.105,234.96 L343.737,233.665 L346.105,232.37 C346.343,232.24 346.539,232.043 346.669,231.806 M354.813,235.47 L355.834,234.912 C356.29,234.663 356.572,234.185 356.572,233.665 C356.572,233.146 356.29,232.668 355.834,232.419 L351.552,230.078 L349.211,225.796 C348.713,224.885 347.216,224.885 346.718,225.796 L346.551,226.102 C340.622,221.324 333.181,218.355 325.069,218.036 L324.459,216.921 C323.961,216.012 322.465,216.012 321.967,216.921 L321.336,218.076 C302.195,219.255 286.981,235.194 286.981,254.627 C286.981,263.169 289.928,271.03 294.847,277.267 L294.829,277.286 C294.035,278.102 293.606,279.178 293.622,280.315 C293.637,281.454 294.094,282.518 294.91,283.311 L296.055,284.425 C296.855,285.203 297.91,285.632 299.026,285.632 C300.186,285.632 301.271,285.174 302.08,284.343 L302.142,284.279 C308.179,288.662 315.595,291.256 323.61,291.256 C343.807,291.256 360.238,274.824 360.238,254.627 C360.238,247.608 358.25,241.047 354.813,235.47" fill="#ffffff"/>
  </g>
</svg>
